<?xml version="1.0" encoding="UTF-8"?>
<!-- Generator: Adobe Illustrator 23.0.3, SVG Export Plug-In . SVG Version: 6.00 Build 0)  -->
<svg version="1.1" id="Layer_1" xmlns="http://www.w3.org/2000/svg" xmlns:xlink="http://www.w3.org/1999/xlink" x="0px" y="0px" viewBox="0 0 283.3 110" style="enable-background:new 0 0 283.3 110;" xml:space="preserve">
<style type="text/css">
	.st0{fill:#FFFFFF;}
	.st1{fill:#FF0000;}
	.st2{fill:#FFEE00;}
	.st3{fill:#005FE8;}
	.st4{fill:#BECC30;}
	.st5{fill:#FF0099;}
</style>
<g id="Layer_2_1_">
</g>
<g id="Layer_1_1_">
	<g id="Layer_2">
		<path class="st0" d="M93.4,22.6c-1.5,0.4-3.3,1.1-4.7,2.5c-1,1-1.5,2-2,3.1C85.8,30.2,86,32,86,32s-0.4,4.1,3.7,5    c0.1,0,0.3,0,0.3,0.1c0.1,0,0.4,0,0.6,0.1c1.4,0.3,3.1,0.1,4.3,0c-0.1,0-0.1,0-0.3-0.1c-0.2-0.1-0.3-0.3-0.4-0.4    c-0.1-1-0.1-3.3-0.1-3.3s0-1.6,0.4-4.1c0.3-1.7,1-3.9,1.8-6.3c0.1-0.3,0.3-0.7,0.4-1c-0.3,0-0.7,0-1.1,0.1    C94.9,22.3,94.2,22.4,93.4,22.6z"/>
	</g>
	<ellipse cx="92.3" cy="25.8" rx="1.5" ry="1.6"/>
	<path d="M79.4,62.6c0.3,4.2,0.7,10.9,1.1,14.4c0,0,0.1,2.2,2.5,2.4h0.1c0,1.4,0.1,2.9,0.1,4.5c0,0,0.1,2,2.2,2.2c0,0,0.3,0,0.6,0   c0,2-0.1,3.8-0.1,5.8c0,0-0.1,2.4,2.7,2.4c2.2,0,2.2-2.4,2.2-2.4c0-2.2,0.3-4.5,0.4-6.7c0.4-5.4,0.8-10.6,1.4-15.9   c0.4-3.2,0.8-7,1.4-10.1c0.6-2.1-3.4-2.7-4.7-2.9c-2-0.3-4.1-0.1-6,0.4c-1.5,0.4-3.3,1.1-3.9,2.8C79.1,60.2,79.4,62.6,79.4,62.6z"/>
	<path class="st1" d="M89.1,62.3c-1.1,13.2-1.7,29.5-1.7,29.5s0.1,1.1,1.1,1.1c1,0,1.1-1.1,1.1-1.1c0.4-12.1,1.7-24.1,2.7-30.4   c-0.6-1.8-1.4-4.2-6-3.6c-4.6,0.6-5.3,5.2-5.3,5.2c0.3,5.8,1.1,13.6,1.1,14.1c0.1,0.8,0.7,1.1,1.1,1.1c0,0,0,0,0.1,0   c-0.1-6.4-0.1-11.7-0.1-15c0.6,0,1.1,0,1.7,0c-0.4,10.2,0.1,20.4,0,20.8c0,0.4,0.4,1.1,1.1,1.1c0.1,0,0.1,0,0.3,0   c0.3-9.1,1-17.5,1.1-22C87.4,62.7,89.1,62.3,89.1,62.3z"/>
	<g id="verde">
		<g>
			<path class="st0" d="M121.1,72l-2.8,8.5c-0.3,1-0.4,2-0.7,2.9h-0.3l-3.3-11.5h-9l-3.8,21.8h8.4l1.1-9.4c0.1-1,0.1-1.7,0.3-2.7     h0.3c0,1,0.3,1.8,0.6,2.8l3.2,9.2h5.2l3.4-9.9c0.3-0.7,0.4-1.4,0.6-2.2h0.1l1.1,12h8.4L130,71.7L121.1,72L121.1,72z"/>
			<polygon class="st0" points="150.3,85.3 160.3,85.3 160.3,80.6 150.3,80.6 150.3,77.3 161.2,77.3 161.2,72 140.4,72 140.4,93.8      161.5,93.8 161.5,88.6 150.3,88.6    "/>
			<polygon class="st0" points="195.9,71.8 185.3,71.8 181.7,76.4 181.4,76.4 177.9,71.8 167.2,71.8 175.5,82.5 166.3,93.8      177.6,93.8 181.4,89.1 181.7,89.1 185.6,93.8 196.5,93.8 187.7,82.5    "/>
			<rect x="201.7" y="71.8" class="st0" width="10.6" height="22"/>
			<path class="st0" d="M232.9,87.1c-2.2,0-4.1-1.8-4.1-4.1c0-2.2,1.8-4.1,4.1-4.1c1.1,0,2,0.4,2.8,1.1l5.7-4.6     c-2.4-2.5-5.7-4.1-9.6-4.1c-7,0-12.6,5.2-12.6,11.6c0,6.3,5.6,11.6,12.6,11.6c3.9,0,7.4-1.5,9.8-4.1l-5.7-4.3     C235.1,86.8,234,87.1,232.9,87.1z"/>
			<path class="st0" d="M62.3,56.1c-1.7-0.6-3.5-2.2-5.2-3.9L44.7,37.7L57,23.2c1.4-1.5,3.2-3.3,5-3.8c1.1-0.1,2.1-1.1,2.1-2.4     c0-1.3-1.1-2.4-2.4-2.5H44.9c-1.3,0.1-2.4,1.1-2.4,2.5c0,1.3,1,2.2,2.1,2.4c0.6,0.1,0.4,0.7-0.4,1.4l-7,8.1l-7-8.1     c-0.8-0.8-1-1.3-0.4-1.4c1.1-0.1,2.1-1.1,2.1-2.4c0-1.3-1.1-2.4-2.5-2.7H12.8c-1.3,0.1-2.4,1.3-2.4,2.7c0,1.1,1,2.2,2.1,2.4     c1.7,0.5,3.4,2.2,5,3.8l12.3,14.4L17.4,52.1c-1.5,1.7-3.4,3.4-5.2,3.9c-1.1,0.3-2.1,1.1-2.1,2.5s1.1,2.4,2.4,2.4h16.7     c1.3,0,2.4-1.1,2.4-2.4s-1-2.2-2.1-2.4c-0.5-0.1-0.4-0.7,0.4-1.4l7.3-8.4l7.3,8.4c0.8,0.8,1,1.3,0.4,1.4c-1.1,0-2.1,1.1-2.1,2.4     s1.1,2.4,2.4,2.4h16.7c1.3,0,2.4-1.1,2.4-2.4C64.4,57.3,63.4,56.3,62.3,56.1z"/>
			<path class="st0" d="M169.8,25.7c3.1,2.1,6.8,0.7,7.7-1.6c1.5-3.8,0.5-9-3.8-9.6c-3.4-0.5-6,0.7-9.1,4.2s-3.5,4.6-4.6,6.2     c-0.3-4.5-1.8-8-2.7-8.8c-0.8-0.8-2.8-1.7-5.4-0.5c-2.8,1.1-7.1,3.2-7.1,3.2c-2.4,1.1-1.8,5,1,5.6c2.4,0.7,3.7,4.3,3.7,6.9     c0,2.1,0.1,14.2,0.1,18.3c0,0.3,0,0.6-0.1,1.1c-0.4,2.9-2.7,4.8-4.5,4.8c-2,0-4.6-2.7-4.7-5.5v-0.1c0-0.3,0.3-16.5-0.4-22.5     c-0.7-6-6-10-10.1-11.5c-4.9-1.7-16.7-3.4-22-1.5c-1.5,0.5-3.9,3.7,1.1,3.3c5.4-0.4,9.1,1,12.2,2.4c3.2,1.4,6.8,7,7,13.7v4.8     c0.1,7.4,0.3,15.1-8.1,16.8c-6.7,0.7-8-6.3-8-7.8s-0.3-6.7,5.5-7.8c3.9-0.7,5.3,1.1,7.1,0c1.7-1.1,1.4-3.4-0.1-3.9     c-1.4-0.3-4.3-0.4-4.5-0.4c-7.3,0.1-10.4,1.1-14.1,3.4c-1,0.5-1.5,1.1-2.2,1.8c-0.6,0.7-1.3,1.6-2,2.8l0,0c0,0,0,0.1-0.1,0.1     c-0.1,0.3-0.3,0.6-0.3,0.7l0,0c-0.8,2.1-0.8,5-0.8,5.6v0.1c-0.1,0-0.1,0.1-0.3,0.1c-2.2,2.4-4.6,3.7-7.3,4.6     c-0.6,0.1-1.1,0.4-1.8,0.6c-0.1,1.4-1.1,2.5-2.1,2.5c-1,0-1.8-0.8-2.1-2c-0.4,0-0.7,0-1.1,0c-0.3,1.1-1.1,2-2.1,2     c-1.1,0-2.1-1.1-2.1-2.5c-0.6-0.3-1.1-0.6-1.6-0.8H80c-0.7-0.4-1.3-1-1.8-1.4c-0.1-0.1-0.3-0.3-0.4-0.4c0,0,0,0-0.1-0.1     c-0.1-0.1-0.4-0.4-0.6-0.5c-1.3-1.3-2.4-3.1-3.2-4.6c-0.1-0.3-0.3-0.6-0.4-0.8c-0.1-0.2-0.3-0.4-0.3-0.7l0,0     c0-0.1-0.1-0.3-0.1-0.4c-0.1-0.1-0.1-0.4-0.3-0.5c0-0.1-0.1-0.3-0.1-0.4V44c-0.1-0.3-0.3-0.6-0.3-0.8c0-0.1-0.1-0.3-0.1-0.4     c-0.1-0.3-0.1-0.6-0.3-0.8c0-0.1-0.1-0.3-0.1-0.4c0-0.1,0-0.3-0.1-0.3c0-0.1,0-0.1-0.1-0.3c0-0.1,0-0.1,0-0.3     c-0.1-0.7-0.3-1.3-0.4-1.8c-0.3-1.7-0.4-3.4-0.3-5c0.8-7.1,6-12,9.5-14c3.4-2,7-2.8,12.2-2.4c5,0.4,2.8-2.9,1.1-3.3     c-5-1.1-9.9-1.3-14.2-0.7c-0.3,0-0.4,0-0.6,0.1h-0.1c-1.6,0.3-3.2,1-4.6,1.4c-1,0.3-2.7,1.1-2.7,1.1c-8.1,3.9-13.7,11.3-13.7,21     c0,13,9.9,23.8,22.5,25.2c0.6,0,1.1,0.1,1.7,0.1c0.4,0,0.7,0,1.1,0c0.3,0,0.6,0,0.8,0c0.7,0,1.1,0,1.8-0.1c0.7,0,1.1-0.1,1.7-0.3     c0.1,0,0.3,0,0.4,0l0,0c0.6-0.1,1-0.1,1.4-0.3c0.1,0,0.3,0,0.3-0.1c0.7-0.1,1.1-0.4,1.8-0.5c0.4-0.1,0.7-0.3,1.1-0.4     c0.3-0.1,0.7-0.3,1-0.4c0.3-0.1,0.6-0.3,0.8-0.4c0.4-0.1,0.7-0.4,1.1-0.6c0.7-0.4,1.3-0.8,2-1.1c0.4-0.3,0.7-0.4,1.1-0.7     c0.3-0.1,0.4-0.4,0.7-0.6c0.8-0.7,1.4-1.3,2.2-2c0,0,0,0,0.1-0.1c0.3-0.3,0.7-0.6,1-1c0.1,0.3,0.4,0.7,0.6,1     c0.7,1.1,2,3.3,3.7,4.3c4.6,3.1,10.2,2.8,14.1,2.1c4.6-0.8,7.4-4.8,8.5-6.3c0.6,4.6,2,5,3.4,5l3.4,0.1h14.6c1.4,0,5,0.1,9.1-0.6     c-0.1-0.1-0.3-0.3-0.3-0.3c-1.1-1.8,3.1-7.1,3.1-7.1l0,0c-0.1-0.1-0.6-0.3-1.1-0.7l0,0c-1.5-1.1-4.2-3.6-3.8-7.5     c0.1,0,0.3,0,0.6,0.1c1.8,0.1,2.9-0.8,3.9-2.1c0-0.4,0-0.7,0-1c0-4.3,0.6-9.2,2.4-12.3C165.7,25.7,167.9,24.5,169.8,25.7z"/>
			<path class="st0" d="M212.2,16.9c-5.4-4.3-17.5-4.1-23.4-0.7c-3.9,2.2-8.3,4.5-12.3,14.4c0.8-0.8,1.5-1.3,2.4-1.1l0,0     c0.1,0,0.3,0,0.3,0.1c2.9,1.1,3.5,8.8,3.5,9.1c0.1,0,1,0,2,0.3c0.3,0,0.4,0.1,0.7,0.1c0.3,0.1,0.5,0.1,0.8,0.3l0,0     c0.3,0.1,0.5,0.3,0.8,0.4c0.1,0,0.3,0.1,0.3,0.1l0,0c0.3,0.3,0.7,0.4,1,0.7c-0.3-1.6-0.3-3.2-0.3-4.5c-0.1-1.5-0.1-3.6,1.1-7.8     c1.7-5.2,7.3-7.7,8.7-8s7-0.3,7.8,3.8c1,6.6-2.1,7.9-4.1,9.5c-1.3,1.1-5.2,2.2-9,2.9c-0.1,0.1-0.3,0.1-0.4,0.3     c-2.5,1.5-1.7,5.4,0.4,5.7c9.2-0.8,18.9-3.1,21.7-6.6C217.6,31.8,220.7,24.5,212.2,16.9z"/>
			<path class="st0" d="M244.4,55.7c-1.5,0.4-4.3,0.4-4.3,0.4c-3.4,0-6.2-1.3-6.2-10.2c0,0,0-4.9,0-10.8c0-4.9,0.1-11,0.1-11.3     c0.4,0,8.1,0,8.1,0c1.5,0,3.8-0.7,3.8-3.2c0-2.4-2-3.2-3.8-3.2h-8.1c0-0.4-0.1-4.1-0.1-4.1c0-2.5-0.5-4.5-2.2-4.5     s-1.7,1.1-2.8,3.9c-1.1,2.9-4.6,3.9-9,3.8c-0.7,0-1.1,0.3-1.1,0.8c-0.1,0.5,0,1.1,0.7,1.4c2,1.3,2.2,3.2,2.8,5     c0.7,2.4,0.7,6.4,0.5,10.8c0,1.6,0,10.6,0,10.6c0,9.2,2.4,17.6,12.7,17.6c0,0,5-0.6,9-2.5c2.5-1.1,3.5-2.1,3.4-3.4     C247.8,55.2,246.4,55.2,244.4,55.7z"/>
			<path class="st0" d="M272,12.8c-1-2.7-2-3.5-3.5-3.9h-0.4c-1.7-0.1-3.1,0.5-4.6,2.8c-2.8,3.9-5,11.3-5.5,17.4     c-0.6,6.1-0.4,23.7,0.8,34.7c0.1,1.1,0.4,1.8,0.7,2.2c0.1,0.3,0.4,0.4,0.5,0.4l0,0l0,0c0.3,0,0.4,0,0.7-0.3c0.4-0.3,1-1,1.3-2     c4.2-10.4,9.2-27.3,10.5-33.2C273.6,25.1,273.5,17.3,272,12.8z"/>
		</g>
	</g>
	<g id="rojo">
		<g>
			<path class="st1" d="M257.3,71.4c-6.3,0-11.6,5.2-11.6,11.6c0,6.3,5.2,11.5,11.6,11.5c6.3,0,11.5-5.2,11.5-11.5     S263.6,71.4,257.3,71.4z M257.3,86.1c-1.7,0-3.2-1.4-3.2-3.2s1.4-3.2,3.2-3.2c1.7,0,3.2,1.4,3.2,3.2S259,86.1,257.3,86.1z"/>
			<path class="st1" d="M86.7,24.8c-5,4.8-6,15.9-6,15.9s-0.7,5.2-0.6,13.3c0.6,0.3,1.1,0.6,1.5,0.8c0-0.1,0-0.1,0-0.3     c0-1.6,1-2.8,2.1-2.8c1.1,0,2.1,1.1,2.1,2.8c0,0.3,0,0.6-0.1,0.8c0.4,0,0.7,0,1.1,0c0-0.3-0.1-0.6-0.1-0.8c0-1.6,1-2.8,2.1-2.8     c1.1,0,2.1,1.1,2.1,2.8c0,0.1,0,0.1,0,0.3c0.7-0.1,1.1-0.3,1.8-0.6l0.1-0.5c0,0,0.7-5.6,1.7-9.9c1-4.2,1.5-6.7,1.5-6.7h-1     c0,0-0.1,0-0.4,0l0,0l0,0c-1.3,0.1-2.9,0.3-4.3,0c-0.1,0-0.4,0-0.5-0.1c-0.1,0-0.3,0-0.3-0.1c-4.2-1.1-3.6-5-3.6-5     S86,30.1,86.8,28c0.4-1,1.1-2,2-3.1c1.3-1.3,3.2-2.1,4.7-2.5c0.8-0.3,1.4-0.3,2-0.4C96.1,22,97,22,97.3,22c0.3-0.7,0.7-1.3,1-1.8     C98,20.2,91.7,19.9,86.7,24.8z"/>
		</g>
	</g>
	<g id="negro">
		<g>
			<path d="M83.7,57.8c1.1,0,1.8-1,2.2-2.1c0.1-0.3,0.1-0.6,0.1-1c0-1.6-1.1-2.9-2.2-2.9c-1.3,0-2.2,1.3-2.2,2.9c0,0.1,0,0.3,0,0.3     C81.6,56.6,82.5,57.8,83.7,57.8z"/>
			<path d="M88.8,51.8c-1.3,0-2.2,1.3-2.2,2.9c0,0.3,0,0.5,0.1,0.8c0.3,1.1,1.1,2.1,2.2,2.1c1.1,0,2.2-1.1,2.2-2.7     c0-0.1,0-0.1,0-0.3C91.2,53.2,90.2,51.8,88.8,51.8z"/>
			<path d="M195.2,51.8c0.4-0.7,0.8-1.4,1-2.2h-0.3c-0.1,0-0.3,0-0.3,0c-0.1,0-0.4,0-0.5-0.1c-0.1,0-0.4-0.1-0.6-0.1     s-0.3-0.1-0.5-0.3c-2.2-1.3-2.5-4.1-3.8-6c-0.1-0.1-0.3-0.4-0.4-0.5c-0.1-0.1-0.3-0.4-0.4-0.6c-0.1-0.1-0.4-0.4-0.5-0.6     c-0.1-0.1-0.4-0.4-0.5-0.6c-0.3-0.3-0.6-0.4-0.8-0.7c-0.3-0.1-0.5-0.4-0.8-0.5c-0.1,0-0.1-0.1-0.3-0.1c-0.3-0.1-0.5-0.3-0.8-0.4     c-0.3-0.1-0.5-0.3-0.8-0.3c-0.3-0.1-0.4-0.1-0.7-0.1c-0.1,0-0.3-0.1-0.6-0.1c-0.8-0.1-1.1-0.1-1.1-0.1c0-0.3-0.7-7.7-3.5-8.9     c-0.1,0-0.5-0.1-0.7-0.1c-0.8,0-1.7,0.5-2.5,1.1c-2.1,2.2-3.7,6.7-3.7,6.7s-2-0.7-4.3,0c-3.7,1-5.2,3.4-6.6,5.2     c-1.1,1.3-2.1,2.1-3.9,1.8c-0.1,0-0.3,0-0.4,0c-0.3,3.8,2.1,6.7,3.7,7.8l0,0c0.6,0.4,1,0.7,1.1,0.7l0,0l0,0c0,0-4.1,5.3-3.1,7.1     c0,0.1,0.1,0.3,0.3,0.3c0.8,0.7,2.9,0.7,5.3,0.4c-3.1,2.7-8.8,7.1-8.8,7.1s6.2,1.4,17.3-3.4c0.4,0,0.7,0,0.8,0     c0.3,0,1.1,0.1,1.5,0.6c0.5,0.3,1.5,0,1.5,0c0.3,0.1,0.7,0.3,1,0.1c0.7-0.1,1.1-1,1.5-1.1c0.7-0.3,1.1-0.3,1.7-0.7     c0.4-0.3,0.5-0.6,0.8-1c3.2,1.8,6.3,2.7,7.3,1.7c0.3-0.3,0.4-0.7,0.4-1.3c19.7,2.9,28.1-10.6,28.7-13.7     C213.5,49.9,202.9,54.2,195.2,51.8z"/>
			<path d="M106.8,26.4c-0.6-2.7-1.3-4.3-2.9-5.7s-3.5-2.1-5-2.2c-1.4-0.1-3.5,0-6.4,0.8c-2.9,1-5.2,2.5-6.7,3.8s-3.7,3.4-5.8,10.2     c0,0-4.2-0.4-6.7,1.6c-2.5,2-2.1,5-2.1,5.8c0,0.3,0.1,0.8,0.4,1.7c0.4,1.8,1.1,3.5,2.1,5.2c1,1.6,2.1,2.8,3.4,4.1     c0.1,0.1,0.4,0.4,0.6,0.5c0.1,0.1,0.3,0.3,0.4,0.4c-0.1-0.1-0.3-0.3-0.4-0.4c0,0,0,0,0.1,0.1c0.1,0.1,0.3,0.3,0.4,0.4     c0.7,0.6,1.1,1.1,1.8,1.4c0,0,0.1,0,0.1,0.1c0-8.3,0.4-12.9,0.4-12.9s1.1-11.3,6.2-16.2c5.2-4.9,11.1-4.6,11.1-4.6     c-0.4,0.7-0.7,1.3-1,2l-0.1,0.1c-0.1,0.4-0.3,0.5-0.4,0.8c-1.1,2.4-1.6,4.6-1.8,6.3C94,32.1,94,33.7,94,33.7s0,0.7,0,1.4     c0,0.1,0,0.4,0,0.5l0,0c0,0,0,0,0,0.1s0,0.3,0,0.4v0.1c0,0.1,0.1,0.3,0.1,0.4c0,0.1,0.1,0.3,0.3,0.3c0,0,0,0.1,0.1,0.1l0,0     c0.1,0,0.1,0.1,0.3,0.1c0.3,0,0.4,0,0.4,0l1-0.1c0,0-0.7,2.7-1.6,6.8c-1,4.2-1.7,9.9-1.7,9.9l-0.1,0.6c2.8-0.8,5.2-2.2,7.5-4.5     c0.1-0.1,0.1-0.1,0.3-0.3c-0.1,0.1-0.1,0.1-0.3,0.3c0.1-0.1,0.1-0.1,0.3-0.3v-0.1c0-0.7,0.1-3.5,1-5.8c0.1-0.3,0.3-0.5,0.3-0.8     c0,0,0-0.1,0.1-0.1c0.5-1.1,1.1-2,2-2.8c0.5-0.7,1-1,1-1s-0.1-2.8-2.8-4.3c0,0,0.7-0.5,1.5-2.2c0,0-3.5-1.3-5.6-2.5     c0.3,0,5.3,0,8.8,2.7C106.5,32.8,107.4,29,106.8,26.4z M73.1,41.1c-0.1-0.6-0.1-1-0.3-1.4c0-0.8,0.1-1.4,0.4-2.1l0,0l0,0     c0-0.1,0.1-0.3,0.1-0.4c0.1-0.1,0.3-0.4,0.4-0.5c-0.1,0.1-0.3,0.3-0.4,0.5c0,0.1-0.1,0.1-0.1,0.3c0-0.1,0.1-0.1,0.1-0.3     c0.1-0.1,0.3-0.4,0.4-0.5l0.1-0.1l0.1-0.1c-0.1,0-0.1,0.1-0.1,0.1c0.4-0.4,1.1-0.8,1.6-1.1l0,0l0,0l0,0c0.3-0.1,0.4-0.1,0.7-0.3     h0.1l0,0c0.3,0,0.4-0.1,0.7-0.1l0,0l0,0l0,0l0,0c0.3,0,0.7-0.1,1-0.1l0,0c0,0,0,0,0.1,0c0,0,0,0-0.1,0c0.6-0.1,1.1-0.1,1.3-0.1     h0.1l0,0h0.1l0,0c-0.4,1.1-0.7,2.9-1,4.8c-0.1,1.1-0.3,1.7-0.3,2.8v0.3c-0.3,2.7-0.1,4.5-0.3,6c0-1.3,0-2.9,0.1-5.2     c-0.1,2.2-0.1,3.6-0.1,5.2c0,1,0,1.6,0,1.6l0,0c-1.8-2.1-3.4-4.3-3.9-5.6c-0.1-0.4-0.3-0.7-0.3-0.8l0,0l0,0l0,0     c0,0,0-0.1-0.1-0.1c0,0,0,0.1,0.1,0.1c-0.1-0.3-0.6-1.3-0.8-2.5L73.1,41.1z M99.3,20.9L99.3,20.9L99.3,20.9z M99.7,44.9     c0.1-0.7,0.4-1.3,0.7-1.8C99.8,43.6,99.7,44.3,99.7,44.9z M98.1,37c1.3-0.4,2.4-1.1,2.4-1.1l0,0l0,0c0.3,0.1,0.6,0.3,0.7,0.4     c0.1,0,0.1,0.1,0.1,0.1s0.1,0,0.1,0.1c0,0-0.1,0-0.1-0.1c1.4,1.1,1.5,2.7,1.5,2.7c-1,1-1.7,2.1-2.1,2.8l0,0l0,0l0,0     c-0.1,0.1-0.1,0.3-0.1,0.3c-1.7,2.7-1.5,7.3-1.5,7.3c-1.4,1.6-3.9,2.8-3.9,2.8l0,0l0,0l0,0c0.1-1.1,0.7-3.9,1.1-6.6     c-0.1,0.8-0.3,1.6-0.4,2.2c0.1-0.8,0.3-1.4,0.4-2.2c0-0.3,0.1-0.7,0.1-1c0-0.1,0-0.1,0-0.3c0-0.3,0.1-0.5,0.1-0.8     c0,0.3-0.1,0.6-0.1,0.8c0.1-0.7,0.3-1.1,0.4-1.7l0,0v-0.1l0,0l0,0l0,0C97.6,39.2,98.1,37,98.1,37c1.3-0.4,2.4-1.1,2.4-1.1l0,0     C100.5,36,99.5,36.7,98.1,37c0,0-0.6,2.2-1.1,5.4l0,0l0,0C97.6,39.2,98.1,37,98.1,37z M105,29.7L105,29.7     c-3.9-1.7-7.7-1.4-8.5-1.4c-0.1,0-0.1,0-0.1,0l0,0l0,0l0,0c0.1-0.7,0.4-1.3,0.6-2c0.6-1.6,1.1-2.9,1.5-3.9c0,0.1-0.1,0.3-0.1,0.4     c0-0.1,0.1-0.3,0.1-0.4c0.1-0.3,0.3-0.5,0.4-0.8l0,0c0,0,0,0,0-0.1c0.1-0.3,0.3-0.4,0.3-0.5c0.1-0.3,0.3-0.5,0.3-0.5     c0.4,0.1,0.8,0.3,1.1,0.4c-0.4-0.1-0.7-0.3-1.1-0.4c0.4,0.1,0.8,0.3,1.1,0.4l0,0c0.1,0,0.1,0.1,0.3,0.1s0.1,0,0.3,0.1l0,0     c1.5,0.8,2.7,2.2,3.2,3.6l0,0l0,0l0,0c0,0,0,0,0,0.1c0.1,0.4,0.3,0.7,0.3,1.1l0,0c0,0.1,0,0.3,0.1,0.4c0,0.3,0.1,0.5,0.1,0.7     s0,0.3,0,0.4c0,0.1,0,0.3,0,0.4c0,0.1,0,0.1,0,0.3l0,0V28v-0.1C105.1,28.9,105,29.7,105,29.7z"/>
		</g>
	</g>
	<g id="color1">
		<g>
			<path class="st2" d="M100.9,20.9L100.9,20.9c-0.1,0-0.1-0.1-0.3-0.1s-0.1-0.1-0.3-0.1l0,0c-0.4-0.1-0.7-0.3-1.1-0.4     c0,0-0.4,0.8-1,1.8s-1.1,2.4-1.6,3.9c-0.3,0.7-0.4,1.3-0.6,2c0,0,0,0,0.1,0c0.8,0,4.6-0.3,8.4,1.4c0,0,0.3-2.5-0.7-5     C103.6,23.1,102.5,21.8,100.9,20.9z"/>
			<path class="st2" d="M100.7,35.7c0,0-1.1,0.8-2.5,1.1c0,0-0.7,2.2-1.3,5.5c0,0,0,0,0,0.1v0.1l0,0c1.4-0.3,2.8-0.6,4.2-0.8l0,0     c0.4-0.5,1.3-1.8,2.2-2.8C103.3,39,103.2,36.7,100.7,35.7z"/>
			<path class="st2" d="M77.4,34.8c-1.6,0.3-3.4,1-4.2,2.2c-0.1,0.1-0.1,0.3-0.3,0.4c-0.3,0.7-0.4,1.4-0.4,2.2     c0,0.5,0.1,1.1,0.3,1.5c2,0.6,4.1,1.1,6.2,1.3c0.1-1.1,0.3-2.1,0.4-3.2c0.3-2,0.7-3.6,1.1-5C80.2,34.5,79,34.4,77.4,34.8z"/>
		</g>
		<g>
			<path class="st3" d="M73.5,43.6L73.5,43.6c0,0.1,0.1,0.4,0.4,0.8c0.7,1.3,2.1,4.1,4.3,6.3c0,0,0-0.7,0-1.6     c0.1-1.6,0.3-4.1,0.6-6.7c-2.1-0.4-4.1-0.8-6.2-1.3C72.9,42.3,73.4,43.3,73.5,43.6z"/>
			<path class="st3" d="M101.1,41.8c-1.3,0.4-2.8,0.7-4.2,0.8c-0.1,0.6-0.3,1.1-0.4,1.7c-0.7,3.1-1.3,6.7-1.5,8c0,0,2.7-1.1,4.2-2.9     c0,0-0.1-4.8,1.7-7.5C100.9,42,100.9,41.9,101.1,41.8z"/>
		</g>
		<g>
			<path class="st4" d="M169.8,62.7c-0.7-0.4-1.1-0.1-1.5-0.6c-0.6-0.6-0.1-0.8-0.4-1.1c-0.1-0.1-0.5,0.1-0.7,0     c-2.4,2.7-3.2,3.3-5.2,4.7c0,0,2.4,0.3,9.2-2.2C169.6,63.3,170.3,63,169.8,62.7z"/>
			<path class="st4" d="M211.9,52.8l-0.5,0.1c-1.1,0.4-2.1,0.7-3.2,1c-0.1,0-0.3,0-0.4,0.1c-3.4,0.8-6.4,1.1-9.6,0.5     c-0.7-0.1-1.3-0.3-2.1-0.5c-0.3-0.1-0.5-0.1-0.8-0.3c-0.3-0.1-0.5-0.1-0.8-0.3c-0.1,0.1-0.3,0.3-0.5,0.4l0,0     c-0.3,0.3-0.7,0.6-1,0.7c-0.1,0.1-0.4,0.1-0.5,0.3c-0.1,0-0.3,0.1-0.4,0.1c-1.8,1-3.5,1.1-3.5,1.1l0,0l0,0c0,0.1,0.1,0.4,0.4,1     V57c0,0.1,0.1,0.3,0.1,0.3c0,0.1,0.1,0.3,0.1,0.3c0.1,0.4,0.3,1,0.4,1.4l0,0c0.1,0.4,0.3,0.8,0.3,1.1c0.4,0,0.7,0.1,1.1,0.1     c7.1,0.7,14-1.3,16.8-2.9c1.4-0.8,2.7-1.6,3.7-2.2c0.3-0.1,0.5-0.4,0.8-0.5l0,0c0.7-0.6,1.1-1,1.7-1.4c0.7-0.7,1.1-1.1,1.5-1.8     C214.1,52.1,213,52.5,211.9,52.8z"/>
		</g>
		<path class="st2" d="M176.5,47.4L176.5,47.4c0-0.1,0-0.1,0-0.3c0,0.1-0.1,0.4-0.1,0.6c-1.1,3.2-3.5,3.9-4.2,7.7    c-0.3,1.4,1.1,2.5,2.9,2.8c1.7,0.1,3.4-0.4,3.5-1.8C178.8,52.3,176.6,50.8,176.5,47.4z"/>
	</g>
	<g id="rosa">
		<g>
			<path class="st5" d="M176.9,42.9c0.3-0.4,1.5-1.7,3.7-2.9c0,0-0.4-6.9-2.4-7.3c-2.1,0-4.2,6.4-4.2,6.4     C176,40.7,176.9,42.3,176.9,42.9z"/>
			<path class="st5" d="M176.5,47.4c0.1,3.4,2.4,4.9,2.1,8.7c-0.1,1.6-1.8,2.1-3.5,1.8c-1.7-0.3-3.2-1.1-2.9-2.8     C172.8,51.6,175.2,50.7,176.5,47.4c-2.3,3.6-7.1,5.7-7.4,9c-0.4,5.3,4.6,5.3,6.2,5.9c2.4,0.1,6.4,0.1,5.5-5.2     C180.3,53.9,177.3,51.4,176.5,47.4z"/>
			<path class="st5" d="M183.5,56.9L183.5,56.9c0.1,0.7,0.4,1.1,0.4,1.7c0,0.6-0.3,1.1-0.4,1.7c0,0.1-0.1,0.3-0.1,0.4     c2.4,1.3,4.3,1.8,4.8,1.6c0.8-0.6-1.4-5.5-1.4-5.5S185.3,57,183.5,56.9z"/>
			<path class="st5" d="M161.3,58.5c0.3,0.6,2.4,0.7,5,0c0-0.1,0-0.3,0-0.6c0-0.7-0.1-1.1,0-1.7c0.1-0.7,0.5-1.1,0.8-1.4v-0.1     c-1.7-0.4-2.9-1-2.9-1S160.9,57.8,161.3,58.5z"/>
			<path class="st5" d="M172.7,39.8c-8.5-2.1-8.3,6.6-13.8,6.4c0.7,5,8.4,6.7,9.9,6.7c0.3,0,0.5,0,0.7,0c0.4-0.4,0.4-1.1,1.1-1.4     c0.7-0.1,1.1-1.1,1.7-1.3c0.5-0.3,1.1-0.3,1.5-0.7c0.4-0.3,0.5-1.1,1.1-1.3c0.6-0.3,1.4-1.1,1.7-2.9     C176.6,44.7,175.2,40.5,172.7,39.8z"/>
			<path class="st5" d="M181.9,41.1c-2.7,0-5,3.6-5.3,4.3c-0.3,1.8,0.4,2.9,1,3.2c0.6,0.4,0.6,1.1,0.8,1.6c0.4,0.5,1,0.5,1.3,1     c0.5,0.4,0.7,1.3,1.3,1.7c0.5,0.3,0.4,1.1,0.7,1.6c0.3,0,0.4,0.1,0.7,0.3c1.4,0.4,9.4,0.8,11.2-3.9     C188.2,49.5,190.8,41.2,181.9,41.1z"/>
		</g>
	</g>
	<path class="st0" d="M51.3,81.5c-1.3,0-2.5,0.4-3.5,1.1v-7.1h-2.8V94h2.8V93c1.1,0.7,2.2,1.1,3.4,1.1h0.1c1.3,0,2.7-0.4,3.6-1.3   c1.6-1.1,2.5-2.9,2.5-4.9v-0.3c0-1.3-0.6-2.7-1.3-3.7C54.9,82.4,53.1,81.5,51.3,81.5z M54.5,87.8c0,0.7-0.3,1.3-0.7,1.8   c-0.7,1-1.7,1.4-2.8,1.4c-0.7,0-1.1-0.1-1.7-0.4c-1.1-0.7-1.8-1.7-1.8-3.1c0-1.8,1.6-3.4,3.4-3.5c0.8,0,1.6,0.3,2.1,0.8   c0.8,0.7,1.3,1.5,1.3,2.7C54.4,87.5,54.5,87.8,54.5,87.8z"/>
	<path class="st0" d="M68.9,86.9c0,0.6-0.1,1.1-0.3,1.7c-0.3,1.4-1.6,2.4-3.1,2.4c-0.7,0-1.4-0.1-2-0.6c-1.1-1.1-1.7-2.5-1.6-3.9   v-5.2h-2.8v5.2c0,1.1,0.3,2.4,0.7,3.4c0.8,2.4,3.2,4.1,5.6,3.9c1.1,0,2.4-0.3,3.4-1v2c0,0.4-0.1,1-0.3,1.3   c-0.4,1.3-1.7,2.2-3.1,2.1h-0.3v2.8h0.3c1.8,0,3.4-0.7,4.6-2.1c1-1.1,1.4-2.7,1.4-4.1V81.5h-2.9v5.5H68.9z"/>
</g>
</svg>